<svg width="32" height="32" viewBox="0 0 32 32" fill="none" xmlns="http://www.w3.org/2000/svg">
<path fill-rule="evenodd" clip-rule="evenodd" d="M9.95331 1.42125C11.5173 1.34925 12.016 1.33325 16 1.33325C19.984 1.33325 20.4826 1.35059 22.0453 1.42125C23.608 1.49192 24.6746 1.74125 25.608 2.10259C26.5853 2.47192 27.472 3.04925 28.2053 3.79592C28.952 4.52792 29.528 5.41325 29.896 6.39192C30.2586 7.32525 30.5066 8.39192 30.5786 9.95192C30.6506 11.5186 30.6666 12.0173 30.6666 15.9999C30.6666 19.9839 30.6493 20.4826 30.5786 22.0466C30.508 23.6066 30.2586 24.6733 29.896 25.6066C29.528 26.5854 28.951 27.4722 28.2053 28.2052C27.472 28.9519 26.5853 29.5279 25.608 29.8959C24.6746 30.2586 23.608 30.5066 22.048 30.5786C20.4826 30.6506 19.984 30.6666 16 30.6666C12.016 30.6666 11.5173 30.6493 9.95331 30.5786C8.39331 30.5079 7.32665 30.2586 6.39331 29.8959C5.41454 29.5279 4.52774 28.9509 3.79465 28.2052C3.04849 27.4728 2.47107 26.5864 2.10265 25.6079C1.74131 24.6746 1.49331 23.6079 1.42131 22.0479C1.34931 20.4813 1.33331 19.9826 1.33331 15.9999C1.33331 12.0159 1.35065 11.5173 1.42131 9.95459C1.49198 8.39192 1.74131 7.32525 2.10265 6.39192C2.47161 5.41336 3.04947 4.527 3.79598 3.79458C4.52803 3.04859 5.41394 2.47118 6.39198 2.10259C7.32531 1.74125 8.39198 1.49325 9.95198 1.42125H9.95331ZM21.9266 4.06125C20.38 3.99059 19.916 3.97592 16 3.97592C12.084 3.97592 11.62 3.99059 10.0733 4.06125C8.64265 4.12659 7.86665 4.36525 7.34931 4.56659C6.66531 4.83325 6.17598 5.14925 5.66265 5.66259C5.17604 6.13599 4.80155 6.71229 4.56665 7.34925C4.36531 7.86659 4.12665 8.64258 4.06131 10.0733C3.99065 11.6199 3.97598 12.0839 3.97598 15.9999C3.97598 19.9159 3.99065 20.3799 4.06131 21.9266C4.12665 23.3573 4.36531 24.1333 4.56665 24.6506C4.80131 25.2866 5.17598 25.8639 5.66265 26.3373C6.13598 26.8239 6.71331 27.1986 7.34931 27.4333C7.86665 27.6346 8.64265 27.8733 10.0733 27.9386C11.62 28.0093 12.0826 28.0239 16 28.0239C19.9173 28.0239 20.38 28.0093 21.9266 27.9386C23.3573 27.8733 24.1333 27.6346 24.6506 27.4333C25.3346 27.1666 25.824 26.8506 26.3373 26.3373C26.824 25.8639 27.1986 25.2866 27.4333 24.6506C27.6346 24.1333 27.8733 23.3573 27.9386 21.9266C28.0093 20.3799 28.024 19.9159 28.024 15.9999C28.024 12.0839 28.0093 11.6199 27.9386 10.0733C27.8733 8.64258 27.6346 7.86659 27.4333 7.34925C27.1666 6.66525 26.8506 6.17592 26.3373 5.66259C25.8639 5.17601 25.2876 4.80153 24.6506 4.56659C24.1333 4.36525 23.3573 4.12659 21.9266 4.06125ZM14.1266 20.5212C15.1729 20.9568 16.3378 21.0155 17.4226 20.6875C18.5073 20.3596 19.4445 19.6651 20.0741 18.7229C20.7037 17.7807 20.9867 16.6491 20.8747 15.5214C20.7627 14.3937 20.2627 13.3399 19.46 12.5399C18.9483 12.0286 18.3296 11.637 17.6484 11.3934C16.9672 11.1499 16.2406 11.0604 15.5206 11.1314C14.8007 11.2024 14.1055 11.4322 13.4851 11.8041C12.8646 12.176 12.3343 12.6809 11.9324 13.2824C11.5305 13.8839 11.2669 14.567 11.1607 15.2825C11.0544 15.9981 11.1082 16.7283 11.318 17.4206C11.5279 18.1129 11.8886 18.7501 12.3743 19.2862C12.8599 19.8224 13.4584 20.2442 14.1266 20.5212ZM10.6693 10.6693C11.3693 9.96922 12.2004 9.41392 13.115 9.03507C14.0297 8.65621 15.01 8.46122 16 8.46122C16.99 8.46122 17.9703 8.65621 18.8849 9.03507C19.7996 9.41392 20.6306 9.96922 21.3306 10.6693C22.0307 11.3693 22.586 12.2003 22.9648 13.115C23.3437 14.0296 23.5387 15.0099 23.5387 15.9999C23.5387 16.9899 23.3437 17.9702 22.9648 18.8849C22.586 19.7995 22.0307 20.6306 21.3306 21.3306C19.9169 22.7444 17.9994 23.5386 16 23.5386C14.0006 23.5386 12.0831 22.7444 10.6693 21.3306C9.25553 19.9168 8.46128 17.9993 8.46128 15.9999C8.46128 14.0005 9.25553 12.083 10.6693 10.6693ZM25.2106 9.58392C25.3841 9.42028 25.523 9.22349 25.6191 9.00522C25.7151 8.78694 25.7664 8.55161 25.7699 8.31316C25.7733 8.07471 25.7289 7.83798 25.6393 7.617C25.5496 7.39602 25.4166 7.19527 25.2479 7.02664C25.0793 6.85801 24.8785 6.72493 24.6576 6.63528C24.4366 6.54562 24.1999 6.50122 23.9614 6.5047C23.723 6.50817 23.4876 6.55946 23.2693 6.65551C23.0511 6.75157 22.8543 6.89045 22.6906 7.06392C22.3724 7.40129 22.1982 7.84941 22.2049 8.31316C22.2117 8.7769 22.3989 9.21976 22.7269 9.54771C23.0548 9.87566 23.4977 10.0629 23.9614 10.0696C24.4251 10.0764 24.8733 9.90217 25.2106 9.58392Z" fill="#3AA8DC"/>
</svg>
