<svg width="32" height="32" viewBox="0 0 32 32" fill="none" xmlns="http://www.w3.org/2000/svg">
<path fill-rule="evenodd" clip-rule="evenodd" d="M1.33331 3.78392C1.33331 3.13396 1.59151 2.51063 2.0511 2.05104C2.51069 1.59145 3.13402 1.33326 3.78398 1.33326H28.2133C28.5354 1.33273 28.8545 1.39574 29.1522 1.51868C29.4499 1.64162 29.7204 1.82207 29.9483 2.0497C30.1762 2.27734 30.3569 2.54769 30.4802 2.84527C30.6035 3.14285 30.6668 3.46182 30.6666 3.78392V28.2133C30.667 28.5354 30.6038 28.8545 30.4807 29.1522C30.3577 29.4499 30.1771 29.7205 29.9493 29.9483C29.7216 30.1762 29.4512 30.3569 29.1535 30.4802C28.8558 30.6034 28.5368 30.6668 28.2146 30.6666H3.78398C3.46204 30.6666 3.14326 30.6032 2.84584 30.4799C2.54843 30.3567 2.27821 30.176 2.05063 29.9483C1.82304 29.7206 1.64256 29.4503 1.51948 29.1528C1.3964 28.8553 1.33314 28.5365 1.33331 28.2146V3.78392ZM12.944 12.5173H16.916V14.5119C17.4893 13.3653 18.956 12.3333 21.16 12.3333C25.3853 12.3333 26.3866 14.6173 26.3866 18.8079V26.5706H22.1106V19.7626C22.1106 17.3759 21.5373 16.0293 20.0813 16.0293C18.0613 16.0293 17.2213 17.4813 17.2213 19.7626V26.5706H12.944V12.5173ZM5.61065 26.3879H9.88798V12.3333H5.61065V26.3866V26.3879ZM10.5 7.74926C10.508 8.11549 10.4429 8.47964 10.3083 8.82034C10.1737 9.16104 9.97245 9.47144 9.71629 9.7333C9.46013 9.99516 9.15424 10.2032 8.81659 10.3453C8.47893 10.4873 8.1163 10.5605 7.74998 10.5605C7.38366 10.5605 7.02103 10.4873 6.68337 10.3453C6.34572 10.2032 6.03983 9.99516 5.78367 9.7333C5.52751 9.47144 5.32624 9.16104 5.19166 8.82034C5.05708 8.47964 4.99192 8.11549 4.99998 7.74926C5.01581 7.03039 5.31249 6.34631 5.82649 5.8435C6.34049 5.3407 7.03095 5.05915 7.74998 5.05915C8.46902 5.05915 9.15947 5.3407 9.67347 5.8435C10.1875 6.34631 10.4842 7.03039 10.5 7.74926Z" fill="#3AA8DC"/>
</svg>
