<svg width="32" height="32" viewBox="0 0 32 32" fill="none" xmlns="http://www.w3.org/2000/svg">
<path d="M31.524 6.58269C30.4107 7.07602 29.2147 7.40935 27.9573 7.56002C29.2547 6.78374 30.2253 5.56198 30.688 4.12269C29.4691 4.84667 28.1351 5.35628 26.744 5.62935C25.8085 4.63051 24.5694 3.96846 23.2191 3.74599C21.8688 3.52352 20.4828 3.75308 19.2763 4.39902C18.0698 5.04497 17.1104 6.07117 16.5469 7.31829C15.9834 8.56542 15.8474 9.96369 16.16 11.296C13.6902 11.172 11.2742 10.5301 9.06856 9.41189C6.86296 8.2937 4.91712 6.72424 3.35733 4.80535C2.824 5.72535 2.51733 6.79202 2.51733 7.92802C2.51673 8.95068 2.76857 9.95768 3.2505 10.8597C3.73243 11.7617 4.42954 12.5307 5.28 13.0987C4.2937 13.0673 3.32916 12.8008 2.46666 12.3214V12.4014C2.46656 13.8357 2.96271 15.2259 3.87091 16.336C4.77911 17.4462 6.04342 18.2079 7.44933 18.492C6.53437 18.7396 5.57511 18.7761 4.644 18.5987C5.04066 19.8328 5.81332 20.9121 6.85382 21.6853C7.89431 22.4585 9.15055 22.8869 10.4467 22.9107C8.24644 24.6379 5.52918 25.5748 2.732 25.5707C2.2365 25.5708 1.74143 25.5419 1.24933 25.484C4.08863 27.3096 7.39378 28.2784 10.7693 28.2747C22.196 28.2747 28.4427 18.8107 28.4427 10.6027C28.4427 10.336 28.436 10.0667 28.424 9.80002C29.6391 8.92132 30.6879 7.83322 31.5213 6.58669L31.524 6.58269Z" fill="#3AA8DC"/>
</svg>
