<svg width="25" height="25" viewBox="0 0 25 25" fill="none" xmlns="http://www.w3.org/2000/svg">
<g clip-path="url(#clip0_547_85)">
<path d="M24.125 0.647321C24.4197 0.861607 24.5402 1.14732 24.4866 1.50446L21.0581 22.0759C21.0134 22.3348 20.8706 22.5357 20.6295 22.6786C20.5045 22.75 20.3661 22.7857 20.2143 22.7857C20.1161 22.7857 20.009 22.7634 19.8929 22.7188L13.8259 20.2411L10.5848 24.192C10.4241 24.3973 10.2054 24.5 9.92859 24.5C9.81252 24.5 9.71431 24.4821 9.63395 24.4464C9.46431 24.3839 9.32815 24.279 9.22547 24.1317C9.12279 23.9844 9.07145 23.8214 9.07145 23.6429V18.9688L20.6429 4.78571L6.32592 17.1741L1.03574 15.0045C0.70538 14.8795 0.526809 14.6339 0.500023 14.2679C0.482166 13.9107 0.625023 13.6473 0.928595 13.4777L23.2143 0.620536C23.3482 0.540179 23.4911 0.5 23.6429 0.5C23.8215 0.5 23.9822 0.549107 24.125 0.647321Z" fill="#FDFDFD"/>
</g>
<defs>
<clipPath id="clip0_547_85">
<rect width="24" height="24" fill="white" transform="translate(0.5 0.5)"/>
</clipPath>
</defs>
</svg>
