<svg width="38" height="38" viewBox="0 0 38 38" fill="none" xmlns="http://www.w3.org/2000/svg">
<path d="M34.8334 19C34.8334 10.26 27.74 3.16663 19 3.16663C10.26 3.16663 3.16669 10.26 3.16669 19C3.16669 27.74 10.26 34.8333 19 34.8333C27.74 34.8333 34.8334 27.74 34.8334 19ZM6.33335 19C6.33335 12.0016 12.0017 6.33329 19 6.33329C25.9984 6.33329 31.6667 12.0016 31.6667 19C31.6667 25.9983 25.9984 31.6666 19 31.6666C12.0017 31.6666 6.33335 25.9983 6.33335 19ZM25.3334 19L19 25.3333L16.7675 23.1008L19.2692 20.5833H12.6667V17.4166H19.2692L16.7517 14.8991L19 12.6666L25.3334 19Z" fill="#FDFDFD"/>
</svg>
