<svg width="80" height="80" viewBox="0 0 80 80" fill="none" xmlns="http://www.w3.org/2000/svg">
<circle cx="40" cy="40" r="40" fill="#E9DAFF"/>
<path d="M51.3067 39.6933L55.4933 35.5066L45.4933 25.5066L41.3067 29.6933L30.2667 18.68C28.1867 16.6 24.8 16.6 22.72 18.68L17.6533 23.7466C15.5733 25.8266 15.5733 29.2133 17.6533 31.2933L28.6667 42.3066L16 55V65H26L38.6933 52.3066L49.7067 63.32C52.24 65.8533 55.6533 64.92 57.2533 63.32L62.32 58.2533C64.4 56.1733 64.4 52.7866 62.32 50.7066L51.3067 39.6933ZM32.48 38.52L21.44 27.5066L26.48 22.44L29.8667 25.8266L26.72 29L30.48 32.76L33.6533 29.5866L37.52 33.4533L32.48 38.52ZM53.4933 59.56L42.48 48.5466L47.5467 43.48L51.4133 47.3466L48.24 50.52L52 54.28L55.1733 51.1066L58.56 54.4933L53.4933 59.56ZM63.2267 27.7733C63.4739 27.5266 63.67 27.2336 63.8038 26.911C63.9376 26.5884 64.0065 26.2426 64.0065 25.8933C64.0065 25.5441 63.9376 25.1982 63.8038 24.8756C63.67 24.553 63.4739 24.26 63.2267 24.0133L56.9867 17.7733C55.7333 16.52 54 17 53.2267 17.7733L48.3467 22.6533L58.3467 32.6533L63.2267 27.7733Z" fill="#895CD0"/>
</svg>
